<?xml version="1.0" standalone="no"?>
<!DOCTYPE svg PUBLIC "-//W3C//DTD SVG 20010904//EN"
 "http://www.w3.org/TR/2001/REC-SVG-20010904/DTD/svg10.dtd">
<svg version="1.0" xmlns="http://www.w3.org/2000/svg"
 width="140.000000pt" height="140.000000pt" viewBox="0 0 140.000000 140.000000"
 preserveAspectRatio="xMidYMid meet">

<g transform="translate(0.000000,140.000000) scale(0.100000,-0.100000)"
fill="#000000" stroke="none">
<path d="M0 700 l0 -700 190 0 190 0 10 24 c9 25 -2 84 -18 95 -11 8 -53 282
-55 352 -1 89 18 140 74 195 50 49 56 51 62 18 1 -10 6 -25 11 -32 6 -10 1
-11 -21 -6 l-28 7 33 -37 c32 -37 41 -53 22 -41 -5 3 -10 1 -10 -5 0 -6 -5 -8
-12 -4 -6 4 -8 3 -4 -4 3 -6 15 -9 26 -7 12 2 18 0 15 -6 -4 -5 -10 -7 -14 -4
-5 2 -16 -4 -25 -14 -18 -20 -6 -39 16 -25 6 4 8 3 5 -2 -7 -13 2 -27 28 -43
l20 -12 -20 5 c-11 3 -27 1 -35 -4 -12 -8 -10 -10 10 -10 18 0 21 -3 11 -9 -9
-6 -10 -11 -2 -15 6 -4 9 -12 6 -17 -4 -5 -2 -9 4 -9 6 0 8 -7 4 -16 -3 -9 0
-20 8 -25 8 -5 9 -9 3 -9 -6 0 -11 -7 -11 -15 0 -8 5 -15 10 -15 5 0 4 -6 -2
-13 -6 -8 -8 -17 -4 -20 3 -4 1 -7 -6 -7 -7 0 -10 -4 -6 -9 3 -6 -3 -14 -12
-20 -10 -5 -15 -13 -11 -17 5 -4 3 -13 -3 -20 -8 -10 -5 -11 12 -7 18 5 21 3
16 -10 -6 -17 22 -34 32 -19 6 9 85 52 95 52 3 0 13 -16 21 -36 17 -42 62 -87
76 -78 13 7 41 -15 33 -27 -3 -5 -10 -7 -15 -3 -5 3 -7 10 -4 15 3 5 0 6 -7 4
-8 -3 -14 -14 -14 -25 0 -15 3 -17 15 -7 12 10 13 9 2 -10 -10 -19 -9 -22 4
-17 8 4 15 12 15 19 0 7 6 15 14 18 16 6 10 47 -6 47 -5 0 -7 4 -3 9 3 6 -3
14 -12 20 -10 6 -14 11 -10 11 5 0 -4 22 -20 49 l-27 50 45 40 c40 34 47 47
52 88 3 26 12 60 19 75 17 36 40 37 38 1 -1 -16 -2 -35 -1 -43 1 -13 2 -13 11
0 19 30 7 102 -21 120 -4 3 -4 12 1 20 8 13 10 12 10 -2 0 -10 3 -18 8 -18 13
0 53 67 56 96 3 16 9 40 15 54 10 24 11 23 6 -8 -3 -17 -8 -46 -11 -62 -4 -21
-2 -30 7 -30 7 0 4 -6 -7 -15 -10 -8 -14 -15 -9 -15 24 0 35 27 36 85 1 33 3
52 6 43 2 -9 12 -19 21 -21 14 -4 13 -5 -3 -6 -17 -1 -18 -3 -5 -11 12 -8 13
-11 1 -19 -9 -6 -6 -9 13 -10 50 -3 55 -4 60 -18 3 -8 1 -11 -4 -8 -12 7 -13
-15 -3 -42 6 -16 8 -15 14 7 7 25 7 25 14 3 4 -13 11 -21 15 -18 11 7 40 -40
40 -63 0 -11 -8 -30 -19 -43 -25 -32 -39 -169 -18 -169 20 0 31 31 15 42 -9 5
-4 8 14 8 22 0 31 -7 43 -36 18 -44 42 -182 44 -251 l1 -33 110 0 110 0 0 150
c0 103 -4 157 -12 170 -10 16 -10 22 -1 28 16 10 15 102 -1 96 -6 -2 -17 9
-24 26 -16 34 -36 39 -54 11 -10 -17 -15 -17 -47 -6 -20 6 -37 19 -39 27 -4
19 105 40 148 28 26 -8 30 -6 30 12 0 19 -4 20 -62 16 -35 -3 -53 -3 -41 -1
13 2 23 8 23 13 0 5 8 11 18 14 9 3 -8 3 -38 1 l-55 -4 45 14 c25 8 60 15 79
15 33 0 34 1 15 15 -15 11 -16 15 -4 15 10 1 9 4 -5 10 -19 8 -19 9 3 9 12 1
22 7 22 15 0 14 -24 39 -31 32 -2 -2 -29 -6 -59 -9 -36 -4 -48 -3 -35 3 17 7
18 9 3 9 -10 1 -18 5 -18 10 0 5 -8 7 -18 4 -12 -3 -19 1 -19 11 0 12 11 16
46 16 44 0 98 -19 61 -20 -8 -1 -5 -5 8 -11 18 -7 28 -4 44 10 26 25 17 38
-31 43 -22 2 -37 -1 -34 -6 8 -12 -98 2 -114 16 -7 5 -17 7 -23 3 -18 -11 -11
-33 13 -38 21 -4 21 -4 1 -6 -12 0 -25 -8 -28 -17 -3 -8 -2 -13 3 -9 13 7 20
-17 11 -35 -8 -15 0 -79 16 -130 6 -21 5 -23 -7 -13 -9 7 -20 8 -28 3 -19 -11
-2 -95 19 -96 44 -3 51 -5 45 -14 -3 -5 1 -10 10 -10 11 0 15 -7 13 -23 -2
-18 -9 -22 -35 -20 -28 1 -33 -2 -33 -22 0 -18 -16 -35 -34 -35 -2 0 -3 9 -11
165 -4 86 -3 116 5 105 8 -11 10 -3 7 32 -2 26 -6 51 -10 54 -3 4 -3 12 0 18
13 21 13 50 1 58 -10 6 -10 8 0 8 6 0 12 7 12 15 0 8 -5 15 -11 15 -6 0 -9 7
-5 15 7 18 -10 20 -17 3 -4 -10 -8 -10 -15 1 -8 11 -10 11 -14 0 -2 -7 -11
-10 -21 -6 -25 9 -22 75 8 193 31 121 85 237 153 327 29 37 52 70 52 73 0 2
-20 4 -45 4 -31 0 -47 -5 -51 -15 -4 -8 -13 -15 -21 -15 -8 0 -11 -4 -8 -10 5
-9 1 -16 -31 -53 -5 -7 -19 -30 -30 -52 -53 -104 -58 -116 -71 -187 -3 -16
-10 -28 -15 -28 -5 0 -6 -4 -3 -10 5 -9 -8 -74 -22 -110 -15 -36 -12 -49 10
-52 17 -2 22 -10 22 -34 l0 -31 -42 34 c-24 20 -40 39 -37 44 3 5 11 6 17 2 7
-4 6 0 -2 10 -7 9 -17 14 -22 12 -4 -3 -9 14 -11 37 l-4 43 -8 -40 c-5 -22
-15 -46 -23 -53 -18 -18 -17 -77 2 -92 8 -7 15 -23 15 -35 0 -29 -35 -109 -55
-125 -23 -19 -67 -15 -117 10 -77 39 -104 66 -118 114 -11 41 -15 45 -36 40
-15 -4 -24 -2 -24 5 0 6 15 12 33 12 30 2 30 2 5 6 -16 2 -28 9 -28 14 0 5 11
7 25 3 30 -7 32 3 6 48 -11 18 -22 52 -26 76 -4 23 -10 40 -14 37 -5 -2 -6 7
-3 20 2 15 0 25 -7 25 -6 0 -11 5 -11 10 0 13 37 13 45 1 3 -5 19 -13 36 -16
23 -5 28 -9 18 -16 -11 -7 -9 -9 6 -8 29 1 60 14 61 28 1 6 2 19 3 29 1 15 3
15 11 2 5 -8 10 -10 10 -4 0 10 -33 45 -57 58 -18 10 -85 -25 -78 -42 3 -9 -1
-12 -12 -10 -26 5 -26 28 -3 91 22 59 29 64 100 79 78 16 102 12 137 -26 18
-19 42 -37 52 -41 23 -7 54 -52 46 -65 -3 -6 -1 -10 5 -10 7 0 10 -7 6 -15 -4
-13 -2 -14 14 -5 14 8 20 8 20 0 0 -15 42 -8 48 8 2 6 -3 12 -12 12 -23 0 -36
33 -36 94 0 30 -5 58 -11 61 -6 4 -7 14 -3 24 3 9 7 23 8 31 2 8 10 29 19 47
l17 32 -490 1 -490 1 0 -701z m280 450 c-6 -11 -13 -20 -16 -20 -2 0 0 9 6 20
6 11 13 20 16 20 2 0 0 -9 -6 -20z m357 -72 c-3 -8 -6 -5 -6 6 -1 11 2 17 5
13 3 -3 4 -12 1 -19z m48 12 c3 -5 2 -17 -3 -27 -9 -15 -11 -14 -20 4 -15 27
7 49 23 23z m-195 -229 c-11 -23 -17 -41 -13 -41 5 0 9 -14 10 -30 2 -20 -2
-30 -12 -30 -10 0 -14 12 -13 45 0 25 4 45 8 45 5 0 13 14 19 32 6 17 14 29
17 26 3 -4 -4 -24 -16 -47z m460 -20 l25 -21 -42 0 c-41 0 -43 1 -43 30 0 34
8 32 60 -9z m-752 -6 c1 -14 -3 -25 -9 -25 -5 0 -7 -5 -4 -11 13 -20 -4 -58
-25 -56 -26 2 -27 44 -2 63 16 13 16 13 0 14 -18 0 -24 20 -11 33 3 4 16 7 27
7 16 0 22 -7 24 -25z m72 14 c0 8 2 12 5 9 6 -6 -18 -58 -27 -58 -10 0 -10 8
-1 38 4 18 8 20 14 10 7 -11 9 -10 9 1z m93 -2 c38 -4 64 -17 34 -17 -21 0
-22 -19 -2 -26 23 -9 18 -41 -7 -47 -13 -3 -48 -9 -79 -12 -47 -6 -57 -4 -62
10 -4 9 -3 14 3 10 6 -3 10 1 10 9 0 24 40 85 53 81 7 -3 29 -6 50 -8z m-139
-12 c-4 -8 -8 -15 -10 -15 -2 0 -4 7 -4 15 0 8 4 15 10 15 5 0 7 -7 4 -15z
m-134 -19 c0 -8 3 -21 6 -30 11 -29 -14 -17 -30 14 -14 28 -13 30 5 30 10 0
19 -6 19 -14z m850 -55 c-1 -40 -16 -37 -26 4 -10 43 -10 44 8 28 10 -9 18
-23 18 -32z m-710 9 c0 -16 -4 -30 -10 -30 -5 0 -10 14 -10 30 0 17 5 30 10
30 6 0 10 -13 10 -30z m-200 10 c0 -5 -5 -10 -11 -10 -5 0 -7 5 -4 10 3 6 8
10 11 10 2 0 4 -4 4 -10z m40 -16 c0 -8 5 -14 10 -14 6 0 10 -4 10 -10 0 -5
-9 -10 -20 -10 -16 0 -20 7 -20 31 0 17 4 28 10 24 6 -3 10 -13 10 -21z m590
-95 c0 -5 4 -8 9 -5 5 3 14 -1 21 -9 7 -8 19 -15 26 -15 8 0 13 -5 12 -11 -2
-6 10 -16 27 -22 45 -16 76 -51 35 -40 -11 3 -40 23 -65 45 -25 22 -48 38 -51
36 -2 -3 2 -11 11 -18 8 -7 15 -20 15 -29 -1 -13 -3 -13 -16 4 -8 11 -19 19
-24 18 -5 -2 -7 3 -4 11 3 8 1 17 -5 21 -14 8 -14 25 -1 25 6 0 10 -5 10 -11z
m680 -15 c-7 -8 -24 -13 -39 -13 -23 2 -24 2 -3 6 12 2 20 8 18 12 -3 4 4 8
15 8 17 2 18 -1 9 -13z m-622 -109 c-3 -3 -9 2 -12 12 -6 14 -5 15 5 6 7 -7
10 -15 7 -18z m549 9 c-3 -3 -12 -4 -19 -1 -8 3 -5 6 6 6 11 1 17 -2 13 -5z
m-797 -28 c0 -2 -7 -7 -16 -10 -8 -3 -12 -2 -9 4 6 10 25 14 25 6z m187 -53
c-3 -10 -5 -2 -5 17 0 19 2 27 5 18 2 -10 2 -26 0 -35z m0 -65 c-3 -8 -6 -5
-6 6 -1 11 2 17 5 13 3 -3 4 -12 1 -19z m693 -19 c0 -5 -5 -7 -11 -3 -6 3 -15
0 -20 -7 -7 -11 -9 -10 -9 4 0 10 8 17 20 17 11 0 20 -5 20 -11z m-50 -99 c0
-5 -10 -10 -22 -9 -22 0 -22 1 -3 9 11 5 21 9 23 9 1 1 2 -3 2 -9z m-595 -140
c-3 -5 -11 -10 -16 -10 -6 0 -7 5 -4 10 3 6 11 10 16 10 6 0 7 -4 4 -10z m20
-20 c-3 -5 -11 -10 -16 -10 -6 0 -7 5 -4 10 3 6 11 10 16 10 6 0 7 -4 4 -10z"/>
<path d="M1373 1298 c-14 -14 -24 -38 -24 -59 -1 -25 -3 -28 -6 -10 -4 22 -6
21 -30 -14 -14 -21 -38 -65 -53 -99 -30 -66 -73 -216 -61 -216 3 0 7 -19 8
-42 5 -72 19 -63 33 19 19 125 80 278 133 337 21 24 30 55 25 86 l-3 22 -22
-24z"/>
<path d="M780 1150 c-36 -16 -60 -30 -53 -30 6 0 9 -10 7 -22 -4 -20 -3 -21 4
-4 6 14 11 16 16 7 4 -6 3 -18 -4 -26 -9 -11 -7 -16 9 -24 16 -9 21 -7 26 9 3
11 4 24 0 30 -3 5 0 7 9 4 8 -3 17 -12 20 -20 7 -19 26 -18 26 2 0 11 6 15 19
11 11 -3 22 1 25 9 5 13 -18 69 -32 78 -4 2 -37 -9 -72 -24z"/>
<path d="M1157 1078 c-19 -46 -47 -168 -38 -168 4 0 15 36 26 81 13 59 21 79
31 75 16 -6 18 12 5 33 -7 11 -13 6 -24 -21z"/>
<path d="M745 921 c-40 -5 -45 -7 -26 -13 27 -8 79 0 87 13 3 5 2 8 -3 7 -4 0
-30 -4 -58 -7z"/>
<path d="M435 600 c10 -11 20 -20 23 -20 3 0 -3 9 -13 20 -10 11 -20 20 -23
20 -3 0 3 -9 13 -20z"/>
<path d="M1050 106 l0 -106 34 0 35 0 -15 35 c-8 19 -17 65 -22 101 -4 39 -12
69 -19 72 -10 3 -13 -22 -13 -102z"/>
<path d="M473 139 c-2 -17 1 -18 13 -9 17 15 18 30 1 30 -7 0 -13 -9 -14 -21z"/>
</g>
</svg>
